<?xml version="1.0" encoding="UTF-8" standalone="no"?>
<!-- Created with Inkscape (http://www.inkscape.org/) -->

<svg
   width="120"
   height="120"
   viewBox="0 0 120 120"
   version="1.1"
   id="svg1"
   inkscape:version="1.4.2 (f4327f4, 2025-05-13)"
   xml:space="preserve"
   sodipodi:docname="prompt_composer_logo.svg"
   xmlns:inkscape="http://www.inkscape.org/namespaces/inkscape"
   xmlns:sodipodi="http://sodipodi.sourceforge.net/DTD/sodipodi-0.dtd"
   xmlns:xlink="http://www.w3.org/1999/xlink"
   xmlns="http://www.w3.org/2000/svg"
   xmlns:svg="http://www.w3.org/2000/svg"><sodipodi:namedview
     id="namedview1"
     pagecolor="#ffffff"
     bordercolor="#000000"
     borderopacity="0.25"
     inkscape:showpageshadow="2"
     inkscape:pageopacity="0.0"
     inkscape:pagecheckerboard="0"
     inkscape:deskcolor="#d1d1d1"
     inkscape:document-units="px"
     inkscape:zoom="4"
     inkscape:cx="27.125"
     inkscape:cy="47.875"
     inkscape:window-width="2560"
     inkscape:window-height="1009"
     inkscape:window-x="-8"
     inkscape:window-y="-8"
     inkscape:window-maximized="1"
     inkscape:current-layer="layer1" /><defs
     id="defs1"><inkscape:path-effect
       effect="powerclip"
       message=""
       id="path-effect297"
       is_visible="true"
       lpeversion="1"
       inverse="true"
       flatten="false"
       hide_clip="false" /><inkscape:path-effect
       effect="powerclip"
       message=""
       id="path-effect293"
       is_visible="true"
       lpeversion="1"
       inverse="true"
       flatten="false"
       hide_clip="false" /><inkscape:path-effect
       effect="powerclip"
       message=""
       id="path-effect289"
       is_visible="true"
       lpeversion="1"
       inverse="true"
       flatten="false"
       hide_clip="false" /><inkscape:path-effect
       effect="powerclip"
       message=""
       id="path-effect284"
       is_visible="true"
       lpeversion="1"
       inverse="true"
       flatten="false"
       hide_clip="false" /><inkscape:path-effect
       effect="powerclip"
       message=""
       id="path-effect237"
       is_visible="true"
       lpeversion="1"
       inverse="true"
       flatten="false"
       hide_clip="false" /><inkscape:path-effect
       effect="powerclip"
       message=""
       id="path-effect235"
       is_visible="true"
       lpeversion="1"
       inverse="true"
       flatten="false"
       hide_clip="false" /><inkscape:path-effect
       effect="powerclip"
       message=""
       id="path-effect233"
       is_visible="true"
       lpeversion="1"
       inverse="true"
       flatten="false"
       hide_clip="false" /><inkscape:path-effect
       effect="powerclip"
       message=""
       id="path-effect232"
       is_visible="true"
       lpeversion="1"
       inverse="true"
       flatten="false"
       hide_clip="false" /><inkscape:path-effect
       effect="powerclip"
       message=""
       id="path-effect231"
       is_visible="true"
       lpeversion="1"
       inverse="true"
       flatten="false"
       hide_clip="false" /><inkscape:path-effect
       effect="powerclip"
       message=""
       id="path-effect230"
       is_visible="true"
       lpeversion="1"
       inverse="true"
       flatten="false"
       hide_clip="false" /><inkscape:path-effect
       effect="powerclip"
       message=""
       id="path-effect214"
       is_visible="true"
       lpeversion="1"
       inverse="true"
       flatten="false"
       hide_clip="false" /><inkscape:path-effect
       effect="powerclip"
       message=""
       id="path-effect212"
       is_visible="true"
       lpeversion="1"
       inverse="true"
       flatten="false"
       hide_clip="false" /><linearGradient
       id="linearGradient209"
       inkscape:collect="always"><stop
         style="stop-color:#2c539c;stop-opacity:1;"
         offset="0.10074074"
         id="stop209" /><stop
         style="stop-color:#2f539c;stop-opacity:0.67419964;"
         offset="1"
         id="stop210" /></linearGradient><linearGradient
       id="linearGradient207"
       inkscape:collect="always"><stop
         style="stop-color:#3763b5;stop-opacity:1;"
         offset="0.08296296"
         id="stop207" /><stop
         style="stop-color:#3763b5;stop-opacity:0.48210922;"
         offset="1"
         id="stop208" /></linearGradient><linearGradient
       id="linearGradient205"
       inkscape:collect="always"><stop
         style="stop-color:#4174da;stop-opacity:1;"
         offset="0.0874074"
         id="stop205" /><stop
         style="stop-color:#4174da;stop-opacity:0.44821092;"
         offset="0.98962963"
         id="stop206" /></linearGradient><inkscape:path-effect
       effect="powerclip"
       message=""
       id="path-effect182"
       is_visible="true"
       lpeversion="1"
       inverse="true"
       flatten="false"
       hide_clip="false" /><inkscape:path-effect
       effect="powerclip"
       message=""
       id="path-effect178"
       is_visible="true"
       lpeversion="1"
       inverse="true"
       flatten="false"
       hide_clip="false" /><inkscape:path-effect
       effect="powerclip"
       message=""
       id="path-effect177"
       is_visible="true"
       lpeversion="1"
       inverse="true"
       flatten="false"
       hide_clip="false" /><inkscape:path-effect
       effect="powerclip"
       message=""
       id="path-effect174"
       is_visible="true"
       lpeversion="1"
       inverse="true"
       flatten="false"
       hide_clip="false" /><linearGradient
       id="linearGradient151"
       inkscape:collect="always"><stop
         style="stop-color:#000000;stop-opacity:1;"
         offset="0.5777778"
         id="stop151" /><stop
         style="stop-color:#000000;stop-opacity:0;"
         offset="1"
         id="stop152" /></linearGradient><linearGradient
       id="linearGradient149"
       inkscape:collect="always"><stop
         style="stop-color:#000000;stop-opacity:1;"
         offset="0.43407407"
         id="stop149" /><stop
         style="stop-color:#000000;stop-opacity:0;"
         offset="1"
         id="stop150" /></linearGradient><linearGradient
       id="linearGradient146"
       inkscape:collect="always"><stop
         style="stop-color:#000000;stop-opacity:1;"
         offset="0"
         id="stop147" /><stop
         style="stop-color:#000000;stop-opacity:0;"
         offset="0.46962962"
         id="stop148" /></linearGradient><clipPath
       clipPathUnits="userSpaceOnUse"
       id="clipPath33"><rect
         style="fill:#000000;stroke:none;stroke-width:0.999995;stroke-linecap:butt;stroke-linejoin:bevel;paint-order:stroke markers fill;stop-color:#000000"
         id="rect33"
         width="46.19186"
         height="80.006783"
         x="74.999985"
         y="399.99661" /></clipPath><linearGradient
       id="swatch110"
       inkscape:swatch="solid"><stop
         style="stop-color:#000000;stop-opacity:1;"
         offset="0"
         id="stop110" /></linearGradient><clipPath
       clipPathUnits="userSpaceOnUse"
       id="clipPath52"><path
         id="path52"
         style="stroke-width:0.1;stroke-linecap:square;paint-order:markers fill stroke;stop-color:#000000"
         d="m -880.82767,-187.29769 h 1640.84 v 73.28155 h -1640.84 z" /></clipPath><linearGradient
       inkscape:collect="always"
       xlink:href="#linearGradient146"
       id="linearGradient148"
       x1="75.436249"
       y1="72.494148"
       x2="19.405474"
       y2="20.244604"
       gradientUnits="userSpaceOnUse" /><linearGradient
       inkscape:collect="always"
       xlink:href="#linearGradient149"
       id="linearGradient150"
       x1="105.76949"
       y1="96.057182"
       x2="60.992073"
       y2="54.301571"
       gradientUnits="userSpaceOnUse" /><linearGradient
       inkscape:collect="always"
       xlink:href="#linearGradient151"
       id="linearGradient152"
       x1="64.235329"
       y1="104.85904"
       x2="34.181324"
       y2="76.833229"
       gradientUnits="userSpaceOnUse" /><filter
       id="mask-powermask-path-effect189_inverse"
       inkscape:label="filtermask-powermask-path-effect189"
       style="color-interpolation-filters:sRGB"
       height="100"
       width="100"
       x="-50"
       y="-50"><feColorMatrix
         id="mask-powermask-path-effect189_primitive1"
         values="1"
         type="saturate"
         result="fbSourceGraphic" /><feColorMatrix
         id="mask-powermask-path-effect189_primitive2"
         values="-1 0 0 0 1 0 -1 0 0 1 0 0 -1 0 1 0 0 0 1 0 "
         in="fbSourceGraphic" /></filter><filter
       id="mask-powermask-path-effect190_inverse"
       inkscape:label="filtermask-powermask-path-effect190"
       style="color-interpolation-filters:sRGB"
       height="100"
       width="100"
       x="-50"
       y="-50"><feColorMatrix
         id="mask-powermask-path-effect190_primitive1"
         values="1"
         type="saturate"
         result="fbSourceGraphic" /><feColorMatrix
         id="mask-powermask-path-effect190_primitive2"
         values="-1 0 0 0 1 0 -1 0 0 1 0 0 -1 0 1 0 0 0 1 0 "
         in="fbSourceGraphic" /></filter><filter
       id="mask-powermask-path-effect191_inverse"
       inkscape:label="filtermask-powermask-path-effect191"
       style="color-interpolation-filters:sRGB"
       height="100"
       width="100"
       x="-50"
       y="-50"><feColorMatrix
         id="mask-powermask-path-effect191_primitive1"
         values="1"
         type="saturate"
         result="fbSourceGraphic" /><feColorMatrix
         id="mask-powermask-path-effect191_primitive2"
         values="-1 0 0 0 1 0 -1 0 0 1 0 0 -1 0 1 0 0 0 1 0 "
         in="fbSourceGraphic" /></filter><filter
       id="mask-powermask-path-effect195_inverse"
       inkscape:label="filtermask-powermask-path-effect195"
       style="color-interpolation-filters:sRGB"
       height="100"
       width="100"
       x="-50"
       y="-50"><feColorMatrix
         id="mask-powermask-path-effect195_primitive1"
         values="1"
         type="saturate"
         result="fbSourceGraphic" /><feColorMatrix
         id="mask-powermask-path-effect195_primitive2"
         values="-1 0 0 0 1 0 -1 0 0 1 0 0 -1 0 1 0 0 0 1 0 "
         in="fbSourceGraphic" /></filter><filter
       id="mask-powermask-path-effect196_inverse"
       inkscape:label="filtermask-powermask-path-effect196"
       style="color-interpolation-filters:sRGB"
       height="100"
       width="100"
       x="-50"
       y="-50"><feColorMatrix
         id="mask-powermask-path-effect196_primitive1"
         values="1"
         type="saturate"
         result="fbSourceGraphic" /><feColorMatrix
         id="mask-powermask-path-effect196_primitive2"
         values="-1 0 0 0 1 0 -1 0 0 1 0 0 -1 0 1 0 0 0 1 0 "
         in="fbSourceGraphic" /></filter><filter
       id="mask-powermask-path-effect197_inverse"
       inkscape:label="filtermask-powermask-path-effect197"
       style="color-interpolation-filters:sRGB"
       height="100"
       width="100"
       x="-50"
       y="-50"><feColorMatrix
         id="mask-powermask-path-effect197_primitive1"
         values="1"
         type="saturate"
         result="fbSourceGraphic" /><feColorMatrix
         id="mask-powermask-path-effect197_primitive2"
         values="-1 0 0 0 1 0 -1 0 0 1 0 0 -1 0 1 0 0 0 1 0 "
         in="fbSourceGraphic" /></filter><filter
       id="mask-powermask-path-effect202_inverse"
       inkscape:label="filtermask-powermask-path-effect202"
       style="color-interpolation-filters:sRGB"
       height="100"
       width="100"
       x="-50"
       y="-50"><feColorMatrix
         id="mask-powermask-path-effect202_primitive1"
         values="1"
         type="saturate"
         result="fbSourceGraphic" /><feColorMatrix
         id="mask-powermask-path-effect202_primitive2"
         values="-1 0 0 0 1 0 -1 0 0 1 0 0 -1 0 1 0 0 0 1 0 "
         in="fbSourceGraphic" /></filter><filter
       id="mask-powermask-path-effect203_inverse"
       inkscape:label="filtermask-powermask-path-effect203"
       style="color-interpolation-filters:sRGB"
       height="100"
       width="100"
       x="-50"
       y="-50"><feColorMatrix
         id="mask-powermask-path-effect203_primitive1"
         values="1"
         type="saturate"
         result="fbSourceGraphic" /><feColorMatrix
         id="mask-powermask-path-effect203_primitive2"
         values="-1 0 0 0 1 0 -1 0 0 1 0 0 -1 0 1 0 0 0 1 0 "
         in="fbSourceGraphic" /></filter><filter
       id="mask-powermask-path-effect205_inverse"
       inkscape:label="filtermask-powermask-path-effect205"
       style="color-interpolation-filters:sRGB"
       height="100"
       width="100"
       x="-50"
       y="-50"><feColorMatrix
         id="mask-powermask-path-effect205_primitive1"
         values="1"
         type="saturate"
         result="fbSourceGraphic" /><feColorMatrix
         id="mask-powermask-path-effect205_primitive2"
         values="-1 0 0 0 1 0 -1 0 0 1 0 0 -1 0 1 0 0 0 1 0 "
         in="fbSourceGraphic" /></filter><linearGradient
       inkscape:collect="always"
       xlink:href="#linearGradient205"
       id="linearGradient206"
       x1="33.071091"
       y1="81.886269"
       x2="61.770599"
       y2="10.85249"
       gradientUnits="userSpaceOnUse" /><linearGradient
       inkscape:collect="always"
       xlink:href="#linearGradient207"
       id="linearGradient208"
       x1="75.974899"
       y1="104.88272"
       x2="90.786659"
       y2="45.476021"
       gradientUnits="userSpaceOnUse" /><linearGradient
       inkscape:collect="always"
       xlink:href="#linearGradient209"
       id="linearGradient210"
       x1="40.201183"
       y1="109.31348"
       x2="58.215443"
       y2="72.378769"
       gradientUnits="userSpaceOnUse" /><clipPath
       clipPathUnits="userSpaceOnUse"
       id="clipPath227"><path
         id="lpe_path-effect230"
         style="display:inline;fill:#2e3d5c;fill-opacity:1;stroke:none;stroke-width:0.705802;stroke-dasharray:none;paint-order:fill markers stroke"
         class="powerclip"
         d="M 73.662422,56.27898 H 105.59193 V 71.105133 H 73.662422 Z M 81.988819,44.286514 A 38.437057,38.437057 0 0 0 43.551762,5.8494568 38.437057,38.437057 0 0 0 5.1147041,44.286514 38.437057,38.437057 0 0 0 43.551762,82.723572 38.437057,38.437057 0 0 0 81.988819,44.286514 Z" /></clipPath><clipPath
       clipPathUnits="userSpaceOnUse"
       id="clipPath228"><circle
         style="display:none;fill:#2e3d5c;fill-opacity:1;stroke:none;stroke-width:0.705802;stroke-dasharray:none;paint-order:fill markers stroke"
         id="circle228"
         inkscape:label="circle_a"
         clip-path="none"
         cx="43.551762"
         cy="44.286514"
         r="38.437057" /></clipPath><clipPath
       clipPathUnits="userSpaceOnUse"
       id="clipPath229"><path
         id="lpe_path-effect232"
         style="display:inline;fill:#2e3d5c;fill-opacity:1;stroke:none;stroke-width:0.705802;stroke-dasharray:none;paint-order:fill markers stroke"
         class="powerclip"
         d="M 62.954948,81.690598 H 103.20544 V 96.79644 H 62.954948 Z M 81.988819,44.286514 A 38.437057,38.437057 0 0 0 43.551762,5.8494568 38.437057,38.437057 0 0 0 5.1147041,44.286514 38.437057,38.437057 0 0 0 43.551762,82.723572 38.437057,38.437057 0 0 0 81.988819,44.286514 Z" /></clipPath><filter
       id="mask-powermask-path-effect279_inverse"
       inkscape:label="filtermask-powermask-path-effect279"
       style="color-interpolation-filters:sRGB"
       height="100"
       width="100"
       x="-50"
       y="-50"><feColorMatrix
         id="mask-powermask-path-effect279_primitive1"
         values="1"
         type="saturate"
         result="fbSourceGraphic" /><feColorMatrix
         id="mask-powermask-path-effect279_primitive2"
         values="-1 0 0 0 1 0 -1 0 0 1 0 0 -1 0 1 0 0 0 1 0 "
         in="fbSourceGraphic" /></filter><filter
       id="mask-powermask-path-effect280_inverse"
       inkscape:label="filtermask-powermask-path-effect280"
       style="color-interpolation-filters:sRGB"
       height="100"
       width="100"
       x="-50"
       y="-50"><feColorMatrix
         id="mask-powermask-path-effect280_primitive1"
         values="1"
         type="saturate"
         result="fbSourceGraphic" /><feColorMatrix
         id="mask-powermask-path-effect280_primitive2"
         values="-1 0 0 0 1 0 -1 0 0 1 0 0 -1 0 1 0 0 0 1 0 "
         in="fbSourceGraphic" /></filter><clipPath
       clipPathUnits="userSpaceOnUse"
       id="clipPath284"><path
         id="path284"
         clip-path="none"
         style="display:none;fill:#000000;fill-opacity:1;stroke:none;stroke-width:0.40312;paint-order:fill markers stroke"
         inkscape:label="circle_b"
         d="M 48.355587,14.216519 A 34.356386,34.356386 0 0 0 13.999183,48.572922 34.356386,34.356386 0 0 0 48.355587,82.929325 34.356386,34.356386 0 0 0 57.365566,81.727042 27.161132,27.161132 0 0 0 83.955567,103.3475 27.161132,27.161132 0 0 0 111.11733,76.185738 27.161132,27.161132 0 0 0 83.955567,49.023977 a 27.161132,27.161132 0 0 0 -1.246754,0.02859 34.356386,34.356386 0 0 0 0.0032,-0.479644 A 34.356386,34.356386 0 0 0 48.35561,14.21652 Z" /><path
         id="lpe_path-effect284"
         style="display:inline;fill:#000000;fill-opacity:1;stroke:none;stroke-width:0.40312;paint-order:fill markers stroke"
         class="powerclip"
         d="M 23.661503,65.299309 H 74.755146 V 116.39295 H 23.661503 Z M 48.355587,14.216519 A 34.356386,34.356386 0 0 0 13.999183,48.572922 34.356386,34.356386 0 0 0 48.355587,82.929325 34.356386,34.356386 0 0 0 57.365566,81.727042 27.161132,27.161132 0 0 0 83.955567,103.3475 27.161132,27.161132 0 0 0 111.11733,76.185738 27.161132,27.161132 0 0 0 83.955567,49.023977 a 27.161132,27.161132 0 0 0 -1.246754,0.02859 34.356386,34.356386 0 0 0 0.0032,-0.479644 A 34.356386,34.356386 0 0 0 48.35561,14.21652 Z" /></clipPath><clipPath
       clipPathUnits="userSpaceOnUse"
       id="clipath_lpe_path-effect289"><path
         id="lpe_path-effect289"
         style="display:inline;fill:#2e3d5c;fill-opacity:1;stroke:none;stroke-width:0.705802;stroke-dasharray:none;paint-order:fill markers stroke"
         class="powerclip"
         d="M 64.321945,81.690598 H 104.51843 V 96.756233 H 64.321945 Z M 81.988819,44.286514 A 38.437057,38.437057 0 0 0 43.551762,5.8494568 38.437057,38.437057 0 0 0 5.1147041,44.286514 38.437057,38.437057 0 0 0 43.551762,82.723572 38.437057,38.437057 0 0 0 81.988819,44.286514 Z" /></clipPath><clipPath
       clipPathUnits="userSpaceOnUse"
       id="clipPath293"><path
         id="path293"
         clip-path="none"
         style="display:none;stroke-width:0.705802;paint-order:fill markers stroke"
         inkscape:label="circle_a"
         d="M 43.552182,5.8499011 A 38.437056,38.437056 0 0 0 5.1151017,44.286981 38.437056,38.437056 0 0 0 43.552182,82.724061 38.437056,38.437056 0 0 0 75.196318,66.10507 h 23.774413 c 0.897726,0 1.620499,-0.522839 1.620499,-1.172728 v -2.4805 c 0,-0.649889 -0.722773,-1.172729 -1.620499,-1.172729 H 78.028637 A 38.437056,38.437056 0 0 0 81.989262,44.286981 38.437056,38.437056 0 0 0 43.552182,5.8499011 Z M 70.821684,73.95347 c -0.831,0 -1.499672,0.670449 -1.499672,1.501449 v 2.064713 c 0,0.831 0.668672,1.499672 1.499672,1.499672 h 27.196653 c 0.830996,0 1.499665,-0.668672 1.499665,-1.499672 v -2.064713 c 0,-0.831 -0.668669,-1.501449 -1.499665,-1.501449 z m -1.366408,12.736547 c -0.830999,0 -1.499671,0.670449 -1.499671,1.501449 v 2.105581 c 0,0.831 0.668672,1.499672 1.499671,1.499672 h 27.24996 c 0.830996,0 1.499674,-0.668672 1.499674,-1.499672 v -2.105581 c 0,-0.831 -0.668678,-1.501449 -1.499674,-1.501449 z" /><path
         id="lpe_path-effect293"
         style="display:inline;stroke-width:0.705802;paint-order:fill markers stroke"
         class="powerclip"
         d="M 47.768084,39.566691 H 118.99347 V 110.79207 H 47.768084 Z M 43.552182,5.8499011 A 38.437056,38.437056 0 0 0 5.1151017,44.286981 38.437056,38.437056 0 0 0 43.552182,82.724061 38.437056,38.437056 0 0 0 75.196318,66.10507 h 23.774413 c 0.897726,0 1.620499,-0.522839 1.620499,-1.172728 v -2.4805 c 0,-0.649889 -0.722773,-1.172729 -1.620499,-1.172729 H 78.028637 A 38.437056,38.437056 0 0 0 81.989262,44.286981 38.437056,38.437056 0 0 0 43.552182,5.8499011 Z M 70.821684,73.95347 c -0.831,0 -1.499672,0.670449 -1.499672,1.501449 v 2.064713 c 0,0.831 0.668672,1.499672 1.499672,1.499672 h 27.196653 c 0.830996,0 1.499665,-0.668672 1.499665,-1.499672 v -2.064713 c 0,-0.831 -0.668669,-1.501449 -1.499665,-1.501449 z m -1.366408,12.736547 c -0.830999,0 -1.499671,0.670449 -1.499671,1.501449 v 2.105581 c 0,0.831 0.668672,1.499672 1.499671,1.499672 h 27.24996 c 0.830996,0 1.499674,-0.668672 1.499674,-1.499672 v -2.105581 c 0,-0.831 -0.668678,-1.501449 -1.499674,-1.501449 z" /></clipPath><clipPath
       clipPathUnits="userSpaceOnUse"
       id="clipPath296"><path
         id="path297"
         style="display:none;fill:#2e3d5c;stroke-width:0.62619;paint-order:fill markers stroke"
         d="m 31.613142,60.300416 c -0.831,0 -1.500271,0.669271 -1.500271,1.500271 v 4.62364 c 0,0.831 0.669271,1.500271 1.500271,1.500271 h 4.623641 c 0.831,0 1.498516,-0.669271 1.498516,-1.500271 v -4.62364 c 0,-0.830999 -0.667516,-1.500271 -1.498516,-1.500271 z m 13.67966,0 c -0.831,0 -1.50027,0.669271 -1.50027,1.500271 v 4.62364 c 0,0.831 0.66927,1.500271 1.50027,1.500271 h 4.623641 c 0.831,0 1.50027,-0.669271 1.50027,-1.500271 v -4.62364 c 0,-0.830999 -0.66927,-1.500271 -1.50027,-1.500271 z m 13.681414,0 c -0.831,0 -1.50027,0.669271 -1.50027,1.500271 v 4.62364 c 0,0.831 0.66927,1.500271 1.50027,1.500271 h 4.621886 c 0.831001,0 1.500271,-0.669271 1.500271,-1.500271 v -4.62364 c 0,-0.830999 -0.66927,-1.500271 -1.500271,-1.500271 z" /><path
         id="lpe_path-effect297"
         style="display:block;fill:#2e3d5c;stroke-width:0.62619;paint-order:fill markers stroke"
         class="powerclip"
         d="M 4.1146424,3.0631745 H 90.727048 V 89.67558 H 4.1146424 Z M 31.613142,60.300416 c -0.831,0 -1.500271,0.669271 -1.500271,1.500271 v 4.62364 c 0,0.831 0.669271,1.500271 1.500271,1.500271 h 4.623641 c 0.831,0 1.498516,-0.669271 1.498516,-1.500271 v -4.62364 c 0,-0.830999 -0.667516,-1.500271 -1.498516,-1.500271 z m 13.67966,0 c -0.831,0 -1.50027,0.669271 -1.50027,1.500271 v 4.62364 c 0,0.831 0.66927,1.500271 1.50027,1.500271 h 4.623641 c 0.831,0 1.50027,-0.669271 1.50027,-1.500271 v -4.62364 c 0,-0.830999 -0.66927,-1.500271 -1.50027,-1.500271 z m 13.681414,0 c -0.831,0 -1.50027,0.669271 -1.50027,1.500271 v 4.62364 c 0,0.831 0.66927,1.500271 1.50027,1.500271 h 4.621886 c 0.831001,0 1.500271,-0.669271 1.500271,-1.500271 v -4.62364 c 0,-0.830999 -0.66927,-1.500271 -1.500271,-1.500271 z" /></clipPath></defs><g
     inkscape:label="Layer 1"
     inkscape:groupmode="layer"
     id="layer1"><path
       style="fill:url(#linearGradient210);fill-opacity:1;stroke:url(#linearGradient152);stroke-width:0.297;stroke-dasharray:none;paint-order:fill markers stroke"
       id="path3"
       inkscape:label="circle_c"
       clip-path="url(#clipPath284)"
       transform="matrix(1.2297562,0,0,1.2297562,-16.992926,-17.166446)"
       inkscape:path-effect="#path-effect284"
       sodipodi:type="arc"
       sodipodi:cx="49.208324"
       sodipodi:cy="90.84613"
       sodipodi:rx="20.398321"
       sodipodi:ry="20.398321"
       d="M 69.606646,90.84613 A 20.398321,20.398321 0 0 1 49.208324,111.24445 20.398321,20.398321 0 0 1 28.810003,90.84613 20.398321,20.398321 0 0 1 49.208324,70.447809 20.398321,20.398321 0 0 1 69.606646,90.84613 Z" /><path
       style="display:inline;fill:url(#linearGradient208);fill-opacity:1;stroke:url(#linearGradient150);stroke-width:0.451;stroke-dasharray:none;paint-order:fill markers stroke"
       id="path2"
       inkscape:label="circle_b"
       clip-path="url(#clipPath293)"
       transform="matrix(1.099199,0,0,1.099199,-5.3998584,-6.1137992)"
       inkscape:path-effect="#path-effect293"
       sodipodi:type="arc"
       sodipodi:cx="83.380775"
       sodipodi:cy="75.179382"
       sodipodi:rx="30.387192"
       sodipodi:ry="30.387192"
       d="M 113.76797,75.179382 A 30.387192,30.387192 0 0 1 83.380775,105.56657 30.387192,30.387192 0 0 1 52.993584,75.179382 30.387192,30.387192 0 0 1 83.380775,44.792191 30.387192,30.387192 0 0 1 113.76797,75.179382 Z" /><path
       style="display:inline;fill:url(#linearGradient206);fill-opacity:1;stroke:url(#linearGradient148);stroke-width:0.697;stroke-dasharray:none;paint-order:fill markers stroke"
       id="path236"
       inkscape:label="circle_a"
       clip-path="url(#clipPath296)"
       transform="matrix(1.1130805,0,0,1.1130805,-10.311019,-9.0469513)"
       inkscape:path-effect="#path-effect297"
       sodipodi:type="arc"
       sodipodi:cx="47.420845"
       sodipodi:cy="46.369377"
       sodipodi:rx="37.957703"
       sodipodi:ry="37.957703"
       d="M 85.378548,46.369377 A 37.957703,37.957703 0 0 1 47.420845,84.32708 37.957703,37.957703 0 0 1 9.4631424,46.369377 37.957703,37.957703 0 0 1 47.420845,8.4116745 37.957703,37.957703 0 0 1 85.378548,46.369377 Z" /></g></svg>
